PathFileType	4	(X/Y/Z)	Kaydara																																																																																																																									
DataRate	CameraRate	NumFrames	NumMarkers	Units	OrigDataRate	OrigDataStartFrame	OrigNumFrames																																																																																																																					
30	30	7	41	mm	30	187	372																																																																																																																					
Frame#	Time	NABA_LFHD			NABA_RFHD			NABA_LBHD			NABA_RBHD			NABA_LFTShould			NABA_RFTShould			NABA_LRRShould			NABA_RRRShould			NABA_T10			NABA_STRN			NABA_TRUN			NABA_LSHO			NABA_LUPA			NABA_LELB			NABA_LFRM			NABA_LWRA			NABA_LWRB			NABA_LFIN			NABA_RSHO			NABA_RUPA			NABA_RELB			NABA_RFRM			NABA_RWRA			NABA_RWRB			NABA_RFIN			NABA_LFWT			NABA_RFWT			NABA_LBWT			NABA_RBWT			NABA_LTHI			NABA_LKNE			NABA_LSHN			NABA_LANK			NABA_LHEE			NABA_LTOE			NABA_RTHI			NABA_RKNE			NABA_RSHN			NABA_RANK			NABA_RHEE			NABA_RTOE		
		X1	Y1	Z1	X2	Y2	Z2	X3	Y3	Z3	X4	Y4	Z4	X5	Y5	Z5	X6	Y6	Z6	X7	Y7	Z7	X8	Y8	Z8	X9	Y9	Z9	X10	Y10	Z10	X11	Y11	Z11	X12	Y12	Z12	X13	Y13	Z13	X14	Y14	Z14	X15	Y15	Z15	X16	Y16	Z16	X17	Y17	Z17	X18	Y18	Z18	X19	Y19	Z19	X20	Y20	Z20	X21	Y21	Z21	X22	Y22	Z22	X23	Y23	Z23	X24	Y24	Z24	X25	Y25	Z25	X26	Y26	Z26	X27	Y27	Z27	X28	Y28	Z28	X29	Y29	Z29	X30	Y30	Z30	X31	Y31	Z31	X32	Y32	Z32	X33	Y33	Z33	X34	Y34	Z34	X35	Y35	Z35	X36	Y36	Z36	X37	Y37	Z37	X38	Y38	Z38	X39	Y39	Z39	X40	Y40	Z40	X41	Y41	Z41
																																																																																																																												
187	6.21	277.15769	1435.77667	-199.01926	106.83489	1407.15302	-203.12864	293.35505	1520.27145	-292.02597	75.57099	1477.00531	-270.7522	265.10305	1293.71933	-381.20289	131.74617	1290.66681	-383.64571	267.98773	1368.38501	-483.61618	119.0983	1364.98627	-480.14507	202.20562	1217.38327	-581.29059	198.12868	1233.99185	-342.72095	196.38481	1132.09549	-306.3266	366.50906	1323.9537	-423.4626	418.39897	1089.04884	-483.06435	426.22162	1002.81792	-468.15742	416.48357	931.6748	-494.44073	358.34053	784.19998	-418.1535	430.00725	780.47562	-427.04163	409.60403	721.49605	-386.20796	38.29735	1323.14194	-421.59023	-15.10271	1131.51413	-519.54853	-46.81479	1006.35544	-493.88447	-51.89061	911.17828	-495.84953	14.5397	779.7036	-430.27103	-58.81857	768.74519	-431.99074	-43.23275	728.99689	-404.7419	319.70394	926.75568	-393.15407	55.14863	926.56723	-400.98991	277.44785	992.60483	-563.35091	106.15812	1008.04832	-571.19587	319.71222	623.01697	-500.34119	311.0228	482.27554	-424.77688	252.85711	295.23678	-371.55022	274.0712	134.59654	-415.3928	215.62944	82.50104	-463.58612	240.48431	58.19211	-273.42121	53.41947	647.98759	-559.99763	55.09139	473.94894	-456.53236	66.36054	315.49618	-556.39496	61.67194	191.8606	-717.77817	112.34627	187.93041	-800.64163	113.54353	57.52667	-650.52315
188	6.243	283.23069	1434.30557	-183.59747	112.90795	1406.17584	-188.16311	299.6903	1519.7052	-275.70299	81.83387	1476.81839	-255.04583	270.44699	1294.43542	-365.77892	137.70399	1291.89194	-369.44988	274.14524	1368.88306	-468.72105	125.28346	1366.4325	-465.67482	207.81446	1218.50006	-566.74259	203.59833	1234.73297	-328.35518	201.41184	1132.88666	-291.93771	372.37263	1324.18365	-408.3688	424.9437	1088.71292	-465.62855	432.16156	1002.61192	-450.2858	422.72446	931.42555	-476.27934	363.60458	783.55301	-401.83376	435.41615	780.58929	-407.84096	414.42307	721.81786	-367.06348	44.29428	1324.77493	-407.27367	-9.31691	1132.75627	-505.20821	-40.50526	1007.58667	-478.8987	-44.7395	912.0047	-479.35802	23.46738	782.41814	-411.63185	-49.74274	770.63187	-412.7924	-33.85551	731.75423	-384.9651	324.29199	928.15895	-378.40435	59.88648	927.62383	-386.46053	282.19255	993.97049	-548.23772	110.46854	1008.4874	-556.8919	323.24745	624.68037	-490.25959	314.56543	482.49794	-417.43393	255.64463	294.67281	-367.26818	275.36341	134.7844	-414.48849	216.33888	83.42788	-463.2317	240.64848	57.99682	-273.37875	57.32415	645.76912	-538.01838	56.41185	474.53884	-428.56472	67.48238	319.04734	-533.06969	63.7165	203.03034	-699.888	115.4862	204.55709	-781.79176	113.54266	58.61773	-643.57605
189	6.277	288.939	1433.63403	-169.3784	118.49533	1406.17111	-173.98067	305.5966	1519.40735	-261.09556	87.68475	1477.31247	-240.51073	275.51394	1294.61105	-352.01176	142.69864	1292.82471	-355.84957	279.56564	1369.17831	-454.72229	130.78264	1367.45529	-452.05338	212.82373	1219.1124	-552.81242	208.43922	1235.56786	-314.65351	205.74945	1133.75206	-278.22563	377.52911	1324.13849	-394.36665	430.14626	1088.1678	-449.64088	437.34833	1002.3143	-433.24135	428.17749	930.79277	-458.57407	368.61465	783.32588	-383.97266	440.60921	780.79208	-388.47412	419.1589	722.33955	-347.27795	49.45495	1326.28586	-393.93085	-4.24111	1133.74672	-491.29074	-34.66681	1008.55652	-464.14227	-38.20903	912.58041	-462.58129	32.51627	785.01213	-393.57063	-40.46418	772.35947	-393.03982	-23.97672	734.39774	-364.95785	328.62949	928.95645	-364.51355	64.18467	928.40759	-372.86179	285.93452	994.7213	-534.88663	114.85774	1008.81302	-543.66009	326.39248	625.74451	-480.39398	317.40883	482.34776	-410.15839	257.15691	294.05834	-363.15765	276.19287	134.82697	-413.00636	216.93577	84.24963	-462.8389	240.55487	57.71399	-273.24936	60.98884	643.36243	-516.42967	57.84429	475.43198	-400.65071	69.72395	322.38346	-508.53237	67.00781	213.44944	-679.53072	119.4632	220.214	-760.13351	113.82852	60.45397	-634.31152
190	6.31	294.15781	1433.84216	-156.29544	123.55891	1406.96426	-160.59042	310.97921	1519.45221	-248.06513	92.88429	1478.09998	-227.15265	279.95243	1294.6347	-338.95679	147.19495	1293.49701	-343.00636	284.33762	1369.3219	-441.47911	135.53014	1368.15567	-439.05949	217.39414	1219.60373	-539.79137	212.70008	1235.96962	-301.59668	209.60066	1134.2067	-265.18452	382.08416	1324.03671	-380.99155	434.32259	1087.45399	-434.89048	441.86596	1001.85799	-417.5132	432.7034	929.94507	-441.83704	373.19321	783.48709	-365.03563	445.20218	780.97214	-369.6077	424.02988	723.26485	-327.45266	54.03414	1327.25967	-381.08444	-0.27314	1134.30824	-477.56763	-30.10781	1009.0387	-449.4268	-32.98973	912.85332	-445.94765	40.67613	787.39357	-376.33446	-31.92665	773.90686	-373.43334	-14.48731	736.79535	-345.28103	332.69974	929.188	-351.42876	68.29132	929.0271	-360.17448	289.2688	995.22041	-522.50927	119.07942	1008.75862	-531.22955	329.2025	626.79024	-471.09444	319.63284	482.14554	-403.21594	258.52325	293.23944	-359.41486	276.60999	134.84302	-411.61846	217.18468	85.06018	-462.3201	240.3689	57.51124	-273.02088	64.34463	641.22818	-495.27084	59.19688	477.02374	-373.08006	72.15109	326.06674	-482.91439	70.19088	222.61665	-657.7095	123.77948	233.71847	-736.25854	113.49566	63.08434	-621.58363
191	6.343	298.6676	1434.36081	-144.13242	128.07904	1407.86255	-148.19002	315.59031	1519.74243	-236.13815	97.45988	1478.92029	-214.77716	283.79688	1294.758	-326.53492	151.03484	1293.88962	-330.73208	288.51368	1369.47754	-429.03778	139.69408	1368.69125	-426.81053	221.49979	1220.02052	-527.51919	216.31655	1235.95146	-289.36411	212.99515	1134.16969	-252.98225	386.10504	1324.05472	-368.3017	437.8397	1086.88644	-420.99762	445.61306	1001.46942	-402.96272	436.18881	929.12186	-426.18305	377.1299	783.99574	-346.23104	449.14631	781.30592	-351.63147	428.87772	724.49287	-308.30677	58.20052	1327.8035	-368.72177	2.41374	1134.69925	-464.09222	-27.06371	1009.43268	-434.85706	-29.52882	913.13202	-429.60205	46.98877	789.49661	-360.49915	-25.17013	775.49805	-354.2448	-6.71992	739.12399	-326.49567	336.19942	929.46953	-339.14837	71.88764	929.7522	-348.0719	292.51366	995.77553	-510.43854	122.56882	1008.82706	-519.45751	331.61526	627.66186	-462.40982	321.65863	482.05925	-397.00726	259.7415	292.78225	-356.01006	277.05786	134.94836	-410.56622	217.39691	85.85546	-461.84265	240.26093	57.41971	-272.89812	66.97243	639.55345	-474.59152	60.84729	479.2989	-346.26732	74.47127	329.76639	-456.96178	73.64182	230.15511	-634.29352	128.88083	242.21037	-711.45531	108.387	69.44342	-599.45148
192	6.377	302.50826	1435.06317	-132.76505	131.90283	1408.65509	-136.52563	319.3861	1520.36057	-224.86778	101.25627	1479.73083	-203.20787	287.05185	1295.08423	-314.85371	154.43763	1294.32922	-319.3034	292.28401	1369.83429	-417.31762	143.37706	1369.27872	-415.39669	225.25408	1220.46333	-515.88661	219.58618	1236.12633	-277.90455	216.03525	1134.3782	-241.5255	389.61639	1324.37637	-356.34724	440.95978	1086.53885	-407.90501	448.78345	1001.30402	-389.00536	438.99281	928.52814	-411.16127	380.34374	784.84627	-328.35995	452.21416	781.80908	-334.28883	432.71481	726.08856	-289.82044	61.92548	1328.48206	-357.27489	4.46674	1135.27855	-451.37638	-25.23878	1010.34668	-421.01189	-27.38647	913.83255	-414.58218	50.63293	791.13037	-345.12699	-21.62577	777.43835	-337.39208	-3.04163	742.21985	-308.83406	339.436	929.77226	-327.81979	75.07221	930.41512	-336.43459	295.90065	996.13663	-498.8002	125.63975	1008.94997	-508.11905	333.64407	628.4745	-454.51157	323.559	481.98666	-391.11404	261.01599	292.1763	-352.70298	277.62686	135.15264	-409.4202	217.70842	86.72021	-461.31226	240.31952	57.23111	-272.78774	68.6131	638.50712	-455.10296	62.36648	482.28737	-321.26102	76.36511	332.63065	-430.89027	76.55997	233.23038	-608.22979	133.36739	242.74935	-685.01923	103.47969	77.27382	-566.32462
193	6.41	305.54794	1435.91949	-121.80205	134.93959	1409.51721	-125.56959	322.45388	1521.10229	-214.07347	104.31843	1480.40497	-192.42397	290.16474	1295.48935	-303.94287	157.36237	1294.89761	-308.37942	295.50938	1370.28595	-406.31226	146.66715	1369.7847	-404.52671	228.54794	1220.9259	-504.89967	222.56962	1236.70593	-267.07468	218.90148	1135.0116	-230.62618	392.79427	1324.83154	-345.28893	443.78666	1086.35765	-395.24147	451.51646	1001.33545	-375.56286	441.57711	928.23257	-396.6888	382.78725	785.95032	-311.53744	454.59076	782.73621	-317.74586	435.21614	727.8167	-272.17667	65.15465	1329.28146	-346.55643	6.97479	1135.88661	-439.85111	-23.29927	1011.21719	-409.0752	-25.45094	914.54422	-402.02255	51.55866	792.49367	-330.24376	-20.94301	779.12979	-323.34625	-2.98347	744.71718	-293.37223	342.60624	929.95872	-317.32355	78.21954	931.43631	-325.03216	298.83301	996.36932	-487.85233	128.28508	1009.35837	-497.16423	334.84901	629.17645	-447.14462	324.91497	481.85753	-385.80627	262.08719	291.98261	-349.13059	277.89505	135.41346	-408.49422	217.53275	87.51347	-460.62939	240.48588	57.09517	-272.64444	70.02559	638.30433	-436.45103	64.55995	486.02638	-297.83768	78.08517	334.18819	-403.43452	78.76034	229.94452	-578.26012	136.39264	235.18387	-654.81438	99.79261	79.23433	-527.29317
